<?xml version="1.0" encoding="UTF-8"?>
<svg xmlns="http://www.w3.org/2000/svg" viewBox="0 0 1600 1060" font-family="Arial, Helvetica, 'DejaVu Sans', sans-serif" font-size="14">
  <!--
    FlowAgent Figure 1 — architecture + benchmarking overview.
    Okabe-Ito colour-blind-safe palette; editable in Inkscape / Illustrator / Figma.
  -->

  <!-- ─────────── defs ─────────── -->
  <defs>
    <marker id="arrow"  viewBox="0 0 10 10" refX="9" refY="5" markerWidth="7" markerHeight="7" orient="auto-start-reverse">
      <path d="M0,0 L10,5 L0,10 z" fill="#374151"/>
    </marker>
    <marker id="arrowDashed" viewBox="0 0 10 10" refX="9" refY="5" markerWidth="7" markerHeight="7" orient="auto-start-reverse">
      <path d="M0,0 L10,5 L0,10 z" fill="#6b7280"/>
    </marker>
    <marker id="arrowRed"    viewBox="0 0 10 10" refX="9" refY="5" markerWidth="7" markerHeight="7" orient="auto-start-reverse">
      <path d="M0,0 L10,5 L0,10 z" fill="#b91c1c"/>
    </marker>
    <marker id="arrowGreen"  viewBox="0 0 10 10" refX="9" refY="5" markerWidth="7" markerHeight="7" orient="auto-start-reverse">
      <path d="M0,0 L10,5 L0,10 z" fill="#15803d"/>
    </marker>
    <marker id="arrowAmber"  viewBox="0 0 10 10" refX="9" refY="5" markerWidth="7" markerHeight="7" orient="auto-start-reverse">
      <path d="M0,0 L10,5 L0,10 z" fill="#E69F00"/>
    </marker>
  </defs>

  <!-- ─────────── canvas ─────────── -->
  <rect x="0" y="0" width="1600" height="1060" fill="#ffffff"/>

  <!-- main title -->
  <text x="800" y="36" text-anchor="middle" font-size="20" font-weight="700" fill="#111827">
    Figure 1. FlowAgent: LLM-orchestrated bioinformatics pipelines with autonomous error recovery and end-to-end benchmarking.
  </text>

  <!-- ════════════════════════════════════════════════════════════════════ -->
  <!--  PANEL A — LLM-based workflow planning (top-left)                    -->
  <!-- ════════════════════════════════════════════════════════════════════ -->
  <g transform="translate(30,70)">
    <rect x="0" y="0" width="750" height="450" rx="10" fill="#f9fafb" stroke="#e5e7eb" stroke-width="1.5"/>
    <text x="20" y="32" font-size="22" font-weight="700" fill="#0072B2">A</text>
    <text x="55" y="32" font-size="16" font-weight="600" fill="#111827">
      Natural-language prompt → LLM planner → structured workflow plan
    </text>

    <!-- user prompt box -->
    <rect x="30" y="70" width="220" height="300" rx="8" fill="#ffffff" stroke="#cbd5e1" stroke-width="1.5"/>
    <text x="140" y="94" text-anchor="middle" font-size="12" font-weight="600" fill="#6b7280" letter-spacing="0.5">USER PROMPT</text>
    <text x="45" y="130" font-size="12" fill="#111827" font-style="italic">"Download GSE52778 from</text>
    <text x="45" y="150" font-size="12" fill="#111827" font-style="italic">GEO and run a human RNA-seq</text>
    <text x="45" y="170" font-size="12" fill="#111827" font-style="italic">kallisto pipeline on the bulk</text>
    <text x="45" y="190" font-size="12" fill="#111827" font-style="italic">samples, then run DESeq2</text>
    <text x="45" y="210" font-size="12" fill="#111827" font-style="italic">differential expression</text>
    <text x="45" y="230" font-size="12" fill="#111827" font-style="italic">between Dex-treated and</text>
    <text x="45" y="250" font-size="12" fill="#111827" font-style="italic">untreated conditions."</text>
    <text x="45" y="295" font-size="11" fill="#6b7280">41 prompts in the benchmark</text>
    <text x="45" y="312" font-size="11" fill="#6b7280">corpus (23 standard + 18 hard)</text>

    <!-- arrow 1 -->
    <line x1="260" y1="220" x2="320" y2="220" stroke="#374151" stroke-width="2" marker-end="url(#arrow)"/>

    <!-- LLM planner node -->
    <circle cx="385" cy="220" r="58" fill="#ffffff" stroke="#0072B2" stroke-width="2.5"/>
    <text x="385" y="216" text-anchor="middle" font-size="13" font-weight="700" fill="#0072B2">LLM</text>
    <text x="385" y="234" text-anchor="middle" font-size="11" fill="#0072B2">planner</text>
    <!-- provider dots -->
    <circle cx="363" cy="255" r="5" fill="#0072B2"/>
    <circle cx="385" cy="261" r="5" fill="#E69F00"/>
    <circle cx="407" cy="255" r="5" fill="#009E73"/>

    <!-- arrow 2 -->
    <line x1="450" y1="220" x2="510" y2="220" stroke="#374151" stroke-width="2" marker-end="url(#arrow)"/>

    <!-- plan JSON box -->
    <rect x="520" y="70" width="200" height="300" rx="8" fill="#ffffff" stroke="#cbd5e1" stroke-width="1.5"/>
    <text x="620" y="94" text-anchor="middle" font-size="12" font-weight="600" fill="#6b7280" letter-spacing="0.5">WORKFLOW PLAN</text>
    <g font-family="Menlo, Consolas, monospace" font-size="11" fill="#111827">
      <text x="535" y="118">{</text>
      <text x="545" y="134">"steps": [</text>
      <text x="555" y="152">{"name": "create_dirs",</text>
      <text x="565" y="167">"command": "mkdir…"},</text>
      <text x="555" y="187">{"name": "download_</text>
      <text x="565" y="202">fastq_files", …},</text>
      <text x="555" y="222">{"name": "fastqc", …},</text>
      <text x="555" y="242">{"name": "kallisto_</text>
      <text x="565" y="257">quant", …},</text>
      <text x="555" y="277">{"name": "tximport", …},</text>
      <text x="555" y="297">{"name": "deseq2", …},</text>
      <text x="555" y="317">{"name": "multiqc", …}</text>
      <text x="545" y="335">]</text>
      <text x="535" y="351">}</text>
    </g>

    <!-- caption strip -->
    <text x="30" y="410" font-size="11.5" fill="#374151">
      Auto-routed between agent and workflow modes via an LLM classifier (model = user-configured).
    </text>
    <text x="30" y="427" font-size="11.5" fill="#374151">
      Swept across 33 provider × model combinations (OpenAI, Anthropic, Google families).
    </text>
  </g>

  <!-- ════════════════════════════════════════════════════════════════════ -->
  <!--  PANEL B — Plan execution with DAG-parallel scheduling (top-right)   -->
  <!-- ════════════════════════════════════════════════════════════════════ -->
  <g transform="translate(820,70)">
    <rect x="0" y="0" width="750" height="450" rx="10" fill="#f9fafb" stroke="#e5e7eb" stroke-width="1.5"/>
    <text x="20" y="32" font-size="22" font-weight="700" fill="#0072B2">B</text>
    <text x="55" y="32" font-size="16" font-weight="600" fill="#111827">
      DAG-parallel execution with smart-resume + self-healing
    </text>

    <!-- plan icon -->
    <rect x="30" y="100" width="90" height="120" rx="6" fill="#ffffff" stroke="#cbd5e1" stroke-width="1.5"/>
    <text x="75" y="122" text-anchor="middle" font-size="11" font-weight="600" fill="#6b7280">PLAN</text>
    <line x1="42" y1="140" x2="110" y2="140" stroke="#9ca3af" stroke-width="1"/>
    <line x1="42" y1="155" x2="98" y2="155"  stroke="#9ca3af" stroke-width="1"/>
    <line x1="42" y1="170" x2="105" y2="170" stroke="#9ca3af" stroke-width="1"/>
    <line x1="42" y1="185" x2="92" y2="185"  stroke="#9ca3af" stroke-width="1"/>
    <line x1="42" y1="200" x2="102" y2="200" stroke="#9ca3af" stroke-width="1"/>

    <line x1="125" y1="160" x2="158" y2="160" stroke="#374151" stroke-width="2" marker-end="url(#arrow)"/>

    <!-- DAG: levels roughly: L0=create_dirs, L1=fastq, refs, L2=index+sheet, L3=quant, L4=tximport+deseq2, L5=multiqc -->

    <!-- node style helper: filled rect with status -->
    <!-- create_directories -->
    <g>
      <rect x="170" y="135" width="120" height="32" rx="6" fill="#dcfce7" stroke="#15803d" stroke-width="1.5"/>
      <text x="230" y="155" text-anchor="middle" font-size="11" fill="#065f46">create_dirs ✓</text>
    </g>

    <!-- download_fastq (SKIPPED — cached from prior run, detected by smart-resume) -->
    <g>
      <rect x="320" y="75" width="130" height="32" rx="6" fill="#e5e7eb" stroke="#6b7280" stroke-width="1.5" stroke-dasharray="4 2"/>
      <text x="385" y="95" text-anchor="middle" font-size="11" fill="#374151">download_fastq ↻</text>
    </g>
    <!-- download_reference (SKIPPED — cached reference on disk) -->
    <g>
      <rect x="320" y="120" width="130" height="32" rx="6" fill="#e5e7eb" stroke="#6b7280" stroke-width="1.5" stroke-dasharray="4 2"/>
      <text x="385" y="140" text-anchor="middle" font-size="11" fill="#374151">download_ref ↻</text>
    </g>
    <!-- build_sample_sheet -->
    <g>
      <rect x="320" y="165" width="130" height="32" rx="6" fill="#dcfce7" stroke="#15803d" stroke-width="1.5"/>
      <text x="385" y="185" text-anchor="middle" font-size="11" fill="#065f46">sample_sheet ✓</text>
    </g>
    <!-- fastqc -->
    <g>
      <rect x="320" y="215" width="130" height="32" rx="6" fill="#dcfce7" stroke="#15803d" stroke-width="1.5"/>
      <text x="385" y="235" text-anchor="middle" font-size="11" fill="#065f46">fastqc ✓</text>
    </g>

    <!-- kallisto_index -->
    <g>
      <rect x="475" y="75" width="130" height="32" rx="6" fill="#dcfce7" stroke="#15803d" stroke-width="1.5"/>
      <text x="540" y="95" text-anchor="middle" font-size="11" fill="#065f46">kallisto_index ✓</text>
    </g>
    <!-- kallisto_quant -->
    <g>
      <rect x="475" y="120" width="130" height="32" rx="6" fill="#dcfce7" stroke="#15803d" stroke-width="1.5"/>
      <text x="540" y="140" text-anchor="middle" font-size="11" fill="#065f46">kallisto_quant ✓</text>
    </g>
    <!-- tximport (RECOVERED — Ensembl version-suffix mismatch) -->
    <g>
      <rect x="475" y="165" width="130" height="32" rx="6" fill="#fef3c7" stroke="#E69F00" stroke-width="1.5"/>
      <text x="540" y="185" text-anchor="middle" font-size="11" fill="#92400e">tximport ⚙</text>
    </g>

    <!-- deseq2 -->
    <g>
      <rect x="625" y="120" width="110" height="32" rx="6" fill="#dcfce7" stroke="#15803d" stroke-width="1.5"/>
      <text x="680" y="140" text-anchor="middle" font-size="11" fill="#065f46">deseq2 ✓</text>
    </g>

    <!-- FAILED sibling — contamination_check on a corrupt FASTQ fault.
         LLM correctly refused to "fix" an unrecoverable data-integrity issue. -->
    <g>
      <rect x="475" y="240" width="130" height="32" rx="6" fill="#fee2e2" stroke="#b91c1c" stroke-width="1.5"/>
      <text x="540" y="260" text-anchor="middle" font-size="11" fill="#7f1d1d">contam_check ✗</text>
    </g>

    <!-- multiqc -->
    <g>
      <rect x="625" y="215" width="110" height="32" rx="6" fill="#dcfce7" stroke="#15803d" stroke-width="1.5"/>
      <text x="680" y="235" text-anchor="middle" font-size="11" fill="#065f46">multiqc ✓</text>
    </g>

    <!-- DAG edges (thin grey) -->
    <g stroke="#6b7280" stroke-width="1.2" fill="none">
      <!-- create_dirs fan-out -->
      <path d="M290,151 L320,91"/>
      <path d="M290,151 L320,136"/>
      <path d="M290,151 L320,181"/>
      <path d="M290,151 L320,231"/>

      <!-- download_fastq → kallisto_quant, fastqc, contam_check -->
      <path d="M450,91 L475,136"/>
      <!-- download_ref → kallisto_index, tximport -->
      <path d="M450,136 L475,91"/>
      <path d="M450,136 L475,181"/>
      <!-- fastqc → kallisto_index (QC gate before index build) -->
      <path d="M450,231 L475,100"/>
      <!-- kallisto_index → kallisto_quant -->
      <path d="M540,107 L540,120"/>
      <!-- kallisto_quant → tximport -->
      <path d="M540,152 L540,165"/>
      <!-- download_fastq → contam_check -->
      <path d="M450,91 L475,256"/>
      <!-- sample_sheet → deseq2 -->
      <path d="M450,181 L625,136"/>
      <!-- tximport → deseq2 -->
      <path d="M605,181 L625,141"/>
      <!-- kallisto_quant → multiqc -->
      <path d="M605,136 L625,225"/>
      <!-- deseq2 → multiqc -->
      <path d="M680,152 L680,215"/>
    </g>

    <!-- recovery loop arrow onto tximport (where the real recovery fired) -->
    <path d="M605,181 Q660,170 655,60 Q520,45 475,165"
          stroke="#E69F00" stroke-width="1.8" fill="none" stroke-dasharray="4 3" marker-end="url(#arrowAmber)"/>
    <text x="500" y="52" font-size="10.5" font-style="italic" fill="#92400e">Level-1 recovery (≤3 attempts)</text>

    <!-- unrecoverable refusal indicator next to contam_check -->
    <path d="M608,256 Q660,265 670,275" stroke="#b91c1c" stroke-width="1.5" fill="none" stroke-dasharray="3 2"/>
    <text x="615" y="290" font-size="10" font-style="italic" fill="#7f1d1d">correct refusal</text>
    <text x="615" y="303" font-size="10" font-style="italic" fill="#7f1d1d">(LLM refused to</text>
    <text x="615" y="316" font-size="10" font-style="italic" fill="#7f1d1d">"fix" bad data)</text>

    <!-- legend -->
    <g transform="translate(30,290)">
      <text x="0" y="0" font-size="12" font-weight="600" fill="#374151">Step status:</text>
      <rect x="0" y="12" width="14" height="14" rx="3" fill="#dcfce7" stroke="#15803d"/>
      <text x="20" y="23" font-size="11" fill="#374151">Completed</text>
      <rect x="110" y="12" width="14" height="14" rx="3" fill="#fef3c7" stroke="#E69F00"/>
      <text x="130" y="23" font-size="11" fill="#374151">Recovered (self-healed)</text>
      <rect x="320" y="12" width="14" height="14" rx="3" fill="#fee2e2" stroke="#b91c1c"/>
      <text x="340" y="23" font-size="11" fill="#374151">Failed / unrecoverable</text>
      <rect x="490" y="12" width="14" height="14" rx="3" fill="#e5e7eb" stroke="#6b7280"/>
      <text x="510" y="23" font-size="11" fill="#374151">Skipped (smart-resume)</text>
    </g>

    <!-- caption -->
    <text x="30" y="355" font-size="11.5" fill="#374151">
      <tspan fill="#6b7280" font-weight="600">↻ Skipped</tspan>: smart-resume found valid cached outputs from a prior run.
      <tspan fill="#E69F00" font-weight="600">⚙ Recovered</tspan>: LLM patched a failed command
    </text>
    <text x="30" y="372" font-size="11.5" fill="#374151">
      (real case: tximport Ensembl version-suffix mismatch → + ignoreTxVersion=TRUE).
      <tspan fill="#b91c1c" font-weight="600">✗ Correct refusal</tspan>:
    </text>
    <text x="30" y="389" font-size="11.5" fill="#374151">
      unrecoverable data fault (e.g. truncated FASTQ); LLM correctly declined to "fix" corrupt input.
    </text>
    <text x="30" y="411" font-size="11.5" fill="#374151">
      Executor backends: local shell · Nextflow · Snakemake · SLURM · SGE · Kubernetes.
    </text>
  </g>

  <!-- ════════════════════════════════════════════════════════════════════ -->
  <!--  PANEL C — LLM error recovery detail (bottom-left)                    -->
  <!-- ════════════════════════════════════════════════════════════════════ -->
  <g transform="translate(30,550)">
    <rect x="0" y="0" width="750" height="480" rx="10" fill="#f9fafb" stroke="#e5e7eb" stroke-width="1.5"/>
    <text x="20" y="32" font-size="22" font-weight="700" fill="#0072B2">C</text>
    <text x="55" y="32" font-size="16" font-weight="600" fill="#111827">
      Autonomous error-recovery loop (per-step, max 3 attempts)
    </text>

    <!-- 1. Failure block -->
    <g transform="translate(30,80)">
      <rect x="0" y="0" width="200" height="160" rx="8" fill="#fee2e2" stroke="#b91c1c" stroke-width="1.5"/>
      <text x="100" y="22" text-anchor="middle" font-size="12" font-weight="600" fill="#7f1d1d">STEP FAILURE</text>
      <text x="14" y="46" font-size="11" font-weight="600" fill="#7f1d1d">tximport (R)</text>
      <g font-family="Menlo, Consolas, monospace" font-size="10" fill="#7f1d1d">
        <text x="14" y="68">Error: None of the</text>
        <text x="14" y="82">transcripts in the</text>
        <text x="14" y="96">quantification files</text>
        <text x="14" y="110">are present in the</text>
        <text x="14" y="124">first column of</text>
        <text x="14" y="138">tx2gene…</text>
      </g>
    </g>

    <!-- arrow -->
    <line x1="235" y1="160" x2="275" y2="160" stroke="#b91c1c" stroke-width="2" marker-end="url(#arrowRed)"/>

    <!-- 2. Recovery LLM -->
    <g transform="translate(280,80)">
      <rect x="0" y="0" width="200" height="160" rx="8" fill="#ffffff" stroke="#0072B2" stroke-width="2"/>
      <text x="100" y="22" text-anchor="middle" font-size="12" font-weight="600" fill="#0072B2">RECOVERY LLM</text>
      <text x="14" y="46" font-size="10.5" fill="#374151">• step description</text>
      <text x="14" y="63" font-size="10.5" fill="#374151">• original command</text>
      <text x="14" y="80" font-size="10.5" fill="#374151">• exit code · stderr</text>
      <text x="14" y="97" font-size="10.5" fill="#374151">• platform · tool availability</text>
      <text x="14" y="118" font-size="10.5" font-style="italic" fill="#6b7280">Domain hints: R/Bioconductor,</text>
      <text x="14" y="132" font-size="10.5" font-style="italic" fill="#6b7280">Python deps, shell semantics,</text>
      <text x="14" y="146" font-size="10.5" font-style="italic" fill="#6b7280">GEO/SRA quirks, file perms.</text>
    </g>

    <!-- arrow -->
    <line x1="485" y1="160" x2="525" y2="160" stroke="#15803d" stroke-width="2" marker-end="url(#arrowGreen)"/>

    <!-- 3. Fix block -->
    <g transform="translate(530,80)">
      <rect x="0" y="0" width="200" height="160" rx="8" fill="#dcfce7" stroke="#15803d" stroke-width="1.5"/>
      <text x="100" y="22" text-anchor="middle" font-size="12" font-weight="600" fill="#065f46">FIXED COMMAND</text>
      <g font-family="Menlo, Consolas, monospace" font-size="10" fill="#065f46">
        <text x="14" y="48">tximport(files,</text>
        <text x="14" y="62">  type="kallisto",</text>
        <text x="14" y="76">  tx2gene=tx2gene,</text>
        <text x="14" y="90" font-weight="700">  ignoreTxVersion=TRUE,</text>
        <text x="14" y="104" font-weight="700">  ignoreAfterBar=TRUE)</text>
      </g>
      <text x="14" y="134" font-size="10.5" font-style="italic" fill="#065f46">+ diagnosis + explanation</text>
    </g>

    <!-- retry loop back -->
    <path d="M630,240 C630,330 400,330 400,290 L400,265"
          stroke="#15803d" stroke-width="1.8" fill="none" stroke-dasharray="5 3" marker-end="url(#arrowGreen)"/>
    <text x="340" y="325" font-size="11" font-style="italic" fill="#065f46">Retry (≤3 attempts)</text>

    <!-- unrecoverable refusal note -->
    <g transform="translate(30,295)">
      <rect x="0" y="0" width="680" height="55" rx="8" fill="#fffbeb" stroke="#d97706" stroke-width="1.2"/>
      <text x="14" y="22" font-size="11.5" font-weight="600" fill="#92400e">Short-circuit rejection</text>
      <text x="14" y="40" font-size="10.5" fill="#78350f">
        Python SyntaxError / ImportError in imported code → structured refusal without an LLM call.
      </text>
    </g>

    <!-- caption -->
    <text x="30" y="378" font-size="11.5" fill="#374151">
      The recovery harness distinguishes five outcomes: <tspan fill="#15803d" font-weight="600">correct refusal</tspan>, <tspan fill="#E69F00" font-weight="600">misdiagnosed refusal</tspan>,
    </text>
    <text x="30" y="395" font-size="11.5" fill="#374151">
      <tspan fill="#0072B2" font-weight="600">attempted repair</tspan>, <tspan fill="#6b7280" font-weight="600">silent failure</tspan>, and <tspan fill="#b91c1c" font-weight="600">unsafe repair</tspan> (most dangerous class — plausible but wrong fix).
    </text>
    <text x="30" y="420" font-size="11.5" fill="#374151">
      28-fault injection catalogue across 3 tiers: easy (15), hard (9), unrecoverable (4 — correct answer is refusal).
    </text>
    <text x="30" y="442" font-size="11.5" fill="#374151">
      Same mechanism enables runtime LLM-authored scripts (e.g. DESeq2 R code from actual sample IDs).
    </text>
  </g>

  <!-- ════════════════════════════════════════════════════════════════════ -->
  <!--  PANEL D — Benchmark framework (bottom-right)                        -->
  <!-- ════════════════════════════════════════════════════════════════════ -->
  <g transform="translate(820,550)">
    <rect x="0" y="0" width="750" height="480" rx="10" fill="#f9fafb" stroke="#e5e7eb" stroke-width="1.5"/>
    <text x="20" y="32" font-size="22" font-weight="700" fill="#0072B2">D</text>
    <text x="55" y="32" font-size="16" font-weight="600" fill="#111827">
      Five-pronged benchmark harness with reproducible figures
    </text>

    <!-- helper: each lane = small badge + title + description + output arrow -->

    <!-- Lane A -->
    <g transform="translate(30,70)">
      <rect x="0" y="0" width="45" height="45" rx="8" fill="#0072B2"/>
      <text x="22" y="30" text-anchor="middle" font-size="20" font-weight="700" fill="#ffffff">A</text>
      <text x="60" y="20" font-size="13" font-weight="700" fill="#111827">Planning correctness &amp; cost</text>
      <text x="60" y="38" font-size="11" fill="#374151">41 prompts × 33 models × 3 replicates — plan scoring + per-cell token tally.</text>
      <line x1="400" y1="22" x2="540" y2="22" stroke="#374151" stroke-width="1.5" marker-end="url(#arrow)"/>
      <text x="555" y="17" font-size="10.5" fill="#374151">planning.pdf</text>
      <text x="555" y="30" font-size="10.5" fill="#374151">cost_quality.pdf</text>
    </g>

    <!-- Lane B -->
    <g transform="translate(30,135)">
      <rect x="0" y="0" width="45" height="45" rx="8" fill="#E69F00"/>
      <text x="22" y="30" text-anchor="middle" font-size="20" font-weight="700" fill="#ffffff">B</text>
      <text x="60" y="20" font-size="13" font-weight="700" fill="#111827">Autonomous error recovery</text>
      <text x="60" y="38" font-size="11" fill="#374151">28 injected faults × 3 tiers (easy / hard / unrecoverable) — recovery rate &amp; taxonomy.</text>
      <line x1="400" y1="22" x2="540" y2="22" stroke="#374151" stroke-width="1.5" marker-end="url(#arrow)"/>
      <text x="555" y="17" font-size="10.5" fill="#374151">recovery.pdf</text>
      <text x="555" y="30" font-size="10.5" fill="#374151">recovery_tier.pdf</text>
    </g>

    <!-- Lane C -->
    <g transform="translate(30,200)">
      <rect x="0" y="0" width="45" height="45" rx="8" fill="#009E73"/>
      <text x="22" y="30" text-anchor="middle" font-size="20" font-weight="700" fill="#ffffff">C</text>
      <text x="60" y="20" font-size="13" font-weight="700" fill="#111827">Generator fidelity</text>
      <text x="60" y="38" font-size="11" fill="#374151">Plan → Nextflow / Snakemake codegen; syntax-valid and intent-preserving.</text>
      <line x1="400" y1="22" x2="540" y2="22" stroke="#374151" stroke-width="1.5" marker-end="url(#arrow)"/>
      <text x="555" y="22" font-size="10.5" fill="#374151">generation.pdf</text>
    </g>

    <!-- Lane D -->
    <g transform="translate(30,265)">
      <rect x="0" y="0" width="45" height="45" rx="8" fill="#CC79A7"/>
      <text x="22" y="30" text-anchor="middle" font-size="20" font-weight="700" fill="#ffffff">D</text>
      <text x="60" y="20" font-size="13" font-weight="700" fill="#111827">Executor coverage</text>
      <text x="60" y="38" font-size="11" fill="#374151">Six backends: local · Nextflow · Snakemake · SLURM · SGE · Kubernetes.</text>
      <line x1="400" y1="22" x2="540" y2="22" stroke="#374151" stroke-width="1.5" marker-end="url(#arrow)"/>
      <text x="555" y="22" font-size="10.5" fill="#374151">executors.pdf</text>
    </g>

    <!-- Lane E -->
    <g transform="translate(30,330)">
      <rect x="0" y="0" width="45" height="45" rx="8" fill="#6b21a8"/>
      <text x="22" y="30" text-anchor="middle" font-size="20" font-weight="700" fill="#ffffff">E</text>
      <text x="60" y="20" font-size="13" font-weight="700" fill="#111827">Head-to-head vs competitors</text>
      <text x="60" y="38" font-size="11" fill="#374151">Same prompt corpus, same scoring: FlowAgent · BioMaster · AutoBA.</text>
      <line x1="400" y1="22" x2="540" y2="22" stroke="#374151" stroke-width="1.5" marker-end="url(#arrow)"/>
      <text x="555" y="17" font-size="10.5" fill="#374151">competitors.tsv</text>
      <text x="555" y="30" font-size="10.5" fill="#374151">pass-fail-crash</text>
    </g>

    <!-- reproducibility strip -->
    <g transform="translate(30,395)">
      <rect x="0" y="0" width="690" height="58" rx="8" fill="#eff6ff" stroke="#1d4ed8" stroke-width="1.2"/>
      <text x="14" y="22" font-size="11.5" font-weight="600" fill="#1e3a8a">Per-run reproducibility manifest</text>
      <text x="14" y="40" font-size="10.5" fill="#1e3a8a">
        git SHA · Python + package versions · model IDs · timestamp · random seeds · redacted env snapshot.
      </text>
      <text x="14" y="55" font-size="10.5" fill="#1e3a8a">
        Deterministic rescore / merge / report pipeline: re-score archived runs against current metrics without re-spending API budget.
      </text>
    </g>
  </g>

  <!-- footer -->
  <text x="800" y="1048" text-anchor="middle" font-size="10.5" fill="#6b7280">
    Palette: Okabe-Ito colour-blind-safe. Editable SVG — open in Inkscape / Illustrator / Figma to refine labels or panel sizes before submission.
  </text>
</svg>
